<mxfile host="app.diagrams.net" modified="2023-09-15T23:28:22.004Z" agent="Mozilla/5.0 (Macintosh; Intel Mac OS X 10_15_7) AppleWebKit/537.36 (KHTML, like Gecko) Chrome/116.0.0.0 Safari/537.36" etag="zG9nVQ9p1ABNNh7qPtRM" version="21.7.5" type="device">
  <diagram name="Page-1" id="67KOdD7E-YxpTc-cuoQ-">
    <mxGraphModel dx="557" dy="418" grid="0" gridSize="10" guides="1" tooltips="1" connect="1" arrows="1" fold="1" page="1" pageScale="1" pageWidth="850" pageHeight="1100" math="1" shadow="0">
      <root>
        <mxCell id="0" />
        <mxCell id="1" parent="0" />
        <mxCell id="QJW8HoN2gUbeoveKg1dK-10" style="rounded=0;orthogonalLoop=1;jettySize=auto;html=1;exitX=0.5;exitY=0;exitDx=0;exitDy=0;entryX=0.5;entryY=1;entryDx=0;entryDy=0;strokeColor=#CCCCCC;fillColor=#f5f5f5;endArrow=classicThin;endFill=1;" edge="1" parent="1" source="QJW8HoN2gUbeoveKg1dK-2" target="QJW8HoN2gUbeoveKg1dK-4">
          <mxGeometry relative="1" as="geometry" />
        </mxCell>
        <mxCell id="QJW8HoN2gUbeoveKg1dK-11" style="edgeStyle=orthogonalEdgeStyle;rounded=0;orthogonalLoop=1;jettySize=auto;html=1;exitX=0.5;exitY=0;exitDx=0;exitDy=0;entryX=0.5;entryY=1;entryDx=0;entryDy=0;fillColor=#f5f5f5;strokeColor=#CCCCCC;endArrow=classicThin;endFill=1;" edge="1" parent="1" source="QJW8HoN2gUbeoveKg1dK-2" target="QJW8HoN2gUbeoveKg1dK-5">
          <mxGeometry relative="1" as="geometry" />
        </mxCell>
        <mxCell id="QJW8HoN2gUbeoveKg1dK-12" style="rounded=0;orthogonalLoop=1;jettySize=auto;html=1;exitX=0.5;exitY=0;exitDx=0;exitDy=0;entryX=0.5;entryY=1;entryDx=0;entryDy=0;fillColor=#f5f5f5;strokeColor=#CCCCCC;" edge="1" parent="1" source="QJW8HoN2gUbeoveKg1dK-2" target="QJW8HoN2gUbeoveKg1dK-6">
          <mxGeometry relative="1" as="geometry" />
        </mxCell>
        <mxCell id="QJW8HoN2gUbeoveKg1dK-15" style="rounded=0;orthogonalLoop=1;jettySize=auto;html=1;exitX=0.5;exitY=0;exitDx=0;exitDy=0;entryX=0.5;entryY=1;entryDx=0;entryDy=0;fillColor=#f5f5f5;strokeColor=#CCCCCC;endArrow=classicThin;endFill=1;" edge="1" parent="1" source="QJW8HoN2gUbeoveKg1dK-3" target="QJW8HoN2gUbeoveKg1dK-5">
          <mxGeometry relative="1" as="geometry" />
        </mxCell>
        <mxCell id="QJW8HoN2gUbeoveKg1dK-16" style="rounded=0;orthogonalLoop=1;jettySize=auto;html=1;exitX=0.5;exitY=0;exitDx=0;exitDy=0;entryX=0.5;entryY=1;entryDx=0;entryDy=0;fillColor=#f5f5f5;strokeColor=#CCCCCC;endArrow=classicThin;endFill=1;" edge="1" parent="1" source="QJW8HoN2gUbeoveKg1dK-3" target="QJW8HoN2gUbeoveKg1dK-4">
          <mxGeometry relative="1" as="geometry" />
        </mxCell>
        <mxCell id="QJW8HoN2gUbeoveKg1dK-14" style="rounded=0;orthogonalLoop=1;jettySize=auto;html=1;exitX=0.5;exitY=0;exitDx=0;exitDy=0;entryX=0.5;entryY=1;entryDx=0;entryDy=0;strokeColor=#CCCCCC;endArrow=classicThin;endFill=1;" edge="1" parent="1" source="QJW8HoN2gUbeoveKg1dK-3" target="QJW8HoN2gUbeoveKg1dK-6">
          <mxGeometry relative="1" as="geometry" />
        </mxCell>
        <mxCell id="QJW8HoN2gUbeoveKg1dK-7" style="edgeStyle=orthogonalEdgeStyle;rounded=0;orthogonalLoop=1;jettySize=auto;html=1;exitX=0.5;exitY=0;exitDx=0;exitDy=0;entryX=0.5;entryY=1;entryDx=0;entryDy=0;endArrow=classicThin;endFill=1;" edge="1" parent="1" source="QJW8HoN2gUbeoveKg1dK-1" target="QJW8HoN2gUbeoveKg1dK-4">
          <mxGeometry relative="1" as="geometry" />
        </mxCell>
        <mxCell id="QJW8HoN2gUbeoveKg1dK-8" style="rounded=0;orthogonalLoop=1;jettySize=auto;html=1;exitX=0.5;exitY=0;exitDx=0;exitDy=0;entryX=0.5;entryY=1;entryDx=0;entryDy=0;endArrow=classicThin;endFill=1;" edge="1" parent="1" source="QJW8HoN2gUbeoveKg1dK-1" target="QJW8HoN2gUbeoveKg1dK-5">
          <mxGeometry relative="1" as="geometry" />
        </mxCell>
        <mxCell id="QJW8HoN2gUbeoveKg1dK-9" style="rounded=0;orthogonalLoop=1;jettySize=auto;html=1;exitX=0.5;exitY=0;exitDx=0;exitDy=0;entryX=0.5;entryY=1;entryDx=0;entryDy=0;endArrow=classicThin;endFill=1;" edge="1" parent="1" source="QJW8HoN2gUbeoveKg1dK-1" target="QJW8HoN2gUbeoveKg1dK-6">
          <mxGeometry relative="1" as="geometry" />
        </mxCell>
        <mxCell id="QJW8HoN2gUbeoveKg1dK-1" value="\(u\)" style="ellipse;whiteSpace=wrap;html=1;aspect=fixed;fillColor=#dae8fc;strokeColor=#000000;" vertex="1" parent="1">
          <mxGeometry x="200" y="280" width="40" height="40" as="geometry" />
        </mxCell>
        <mxCell id="QJW8HoN2gUbeoveKg1dK-2" value="" style="ellipse;whiteSpace=wrap;html=1;aspect=fixed;dashed=1;" vertex="1" parent="1">
          <mxGeometry x="280" y="280" width="40" height="40" as="geometry" />
        </mxCell>
        <mxCell id="QJW8HoN2gUbeoveKg1dK-3" value="" style="ellipse;whiteSpace=wrap;html=1;aspect=fixed;dashed=1;" vertex="1" parent="1">
          <mxGeometry x="360" y="280" width="40" height="40" as="geometry" />
        </mxCell>
        <mxCell id="QJW8HoN2gUbeoveKg1dK-4" value="\(v_1\)" style="ellipse;whiteSpace=wrap;html=1;aspect=fixed;fillColor=#ffe6cc;strokeColor=#000000;" vertex="1" parent="1">
          <mxGeometry x="200" y="180" width="40" height="40" as="geometry" />
        </mxCell>
        <mxCell id="QJW8HoN2gUbeoveKg1dK-5" value="\(v_2\)" style="ellipse;whiteSpace=wrap;html=1;aspect=fixed;fillColor=#ffe6cc;strokeColor=#000000;" vertex="1" parent="1">
          <mxGeometry x="280" y="180" width="40" height="40" as="geometry" />
        </mxCell>
        <mxCell id="QJW8HoN2gUbeoveKg1dK-6" value="\(v_3\)" style="ellipse;whiteSpace=wrap;html=1;aspect=fixed;fillColor=#ffe6cc;strokeColor=#000000;" vertex="1" parent="1">
          <mxGeometry x="360" y="180" width="40" height="40" as="geometry" />
        </mxCell>
        <mxCell id="QJW8HoN2gUbeoveKg1dK-17" value="" style="shape=curlyBracket;whiteSpace=wrap;html=1;rounded=1;flipH=1;labelPosition=right;verticalLabelPosition=middle;align=left;verticalAlign=middle;rotation=-90;" vertex="1" parent="1">
          <mxGeometry x="290" y="80" width="20" height="160" as="geometry" />
        </mxCell>
        <mxCell id="QJW8HoN2gUbeoveKg1dK-19" value="Child nodes of \(u\)&amp;nbsp;" style="text;html=1;strokeColor=none;fillColor=none;align=center;verticalAlign=middle;whiteSpace=wrap;rounded=0;" vertex="1" parent="1">
          <mxGeometry x="267.5" y="120" width="62.5" height="30" as="geometry" />
        </mxCell>
        <mxCell id="QJW8HoN2gUbeoveKg1dK-42" style="edgeStyle=orthogonalEdgeStyle;rounded=0;orthogonalLoop=1;jettySize=auto;html=1;exitX=0.5;exitY=0;exitDx=0;exitDy=0;entryX=0.5;entryY=1;entryDx=0;entryDy=0;fillColor=#f5f5f5;strokeColor=#CCCCCC;endArrow=none;endFill=0;startArrow=classicThin;startFill=1;" edge="1" parent="1" source="QJW8HoN2gUbeoveKg1dK-51" target="QJW8HoN2gUbeoveKg1dK-54">
          <mxGeometry relative="1" as="geometry" />
        </mxCell>
        <mxCell id="QJW8HoN2gUbeoveKg1dK-43" style="rounded=0;orthogonalLoop=1;jettySize=auto;html=1;exitX=0.5;exitY=0;exitDx=0;exitDy=0;entryX=0.5;entryY=1;entryDx=0;entryDy=0;fillColor=#f5f5f5;strokeColor=#CCCCCC;endArrow=none;endFill=0;startArrow=classicThin;startFill=1;" edge="1" parent="1" source="QJW8HoN2gUbeoveKg1dK-51" target="QJW8HoN2gUbeoveKg1dK-55">
          <mxGeometry relative="1" as="geometry" />
        </mxCell>
        <mxCell id="QJW8HoN2gUbeoveKg1dK-44" style="rounded=0;orthogonalLoop=1;jettySize=auto;html=1;exitX=0.5;exitY=0;exitDx=0;exitDy=0;entryX=0.5;entryY=1;entryDx=0;entryDy=0;fillColor=#f5f5f5;strokeColor=#CCCCCC;endArrow=none;endFill=0;startArrow=classicThin;startFill=1;" edge="1" parent="1" source="QJW8HoN2gUbeoveKg1dK-52" target="QJW8HoN2gUbeoveKg1dK-54">
          <mxGeometry relative="1" as="geometry" />
        </mxCell>
        <mxCell id="QJW8HoN2gUbeoveKg1dK-46" style="rounded=0;orthogonalLoop=1;jettySize=auto;html=1;exitX=0.5;exitY=0;exitDx=0;exitDy=0;entryX=0.5;entryY=1;entryDx=0;entryDy=0;strokeColor=#CCCCCC;endArrow=none;endFill=0;startArrow=classicThin;startFill=1;" edge="1" parent="1" source="QJW8HoN2gUbeoveKg1dK-52" target="QJW8HoN2gUbeoveKg1dK-55">
          <mxGeometry relative="1" as="geometry" />
        </mxCell>
        <mxCell id="QJW8HoN2gUbeoveKg1dK-48" style="rounded=0;orthogonalLoop=1;jettySize=auto;html=1;exitX=0.5;exitY=0;exitDx=0;exitDy=0;entryX=0.5;entryY=1;entryDx=0;entryDy=0;strokeColor=#CCCCCC;startArrow=classicThin;startFill=1;endArrow=none;endFill=0;" edge="1" parent="1" source="QJW8HoN2gUbeoveKg1dK-50" target="QJW8HoN2gUbeoveKg1dK-54">
          <mxGeometry relative="1" as="geometry" />
        </mxCell>
        <mxCell id="QJW8HoN2gUbeoveKg1dK-49" style="rounded=0;orthogonalLoop=1;jettySize=auto;html=1;exitX=0.5;exitY=0;exitDx=0;exitDy=0;entryX=0.5;entryY=1;entryDx=0;entryDy=0;strokeColor=#CCCCCC;startArrow=classicThin;startFill=1;endArrow=none;endFill=0;" edge="1" parent="1" source="QJW8HoN2gUbeoveKg1dK-50" target="QJW8HoN2gUbeoveKg1dK-55">
          <mxGeometry relative="1" as="geometry" />
        </mxCell>
        <mxCell id="QJW8HoN2gUbeoveKg1dK-50" value="\(u_1\)" style="ellipse;whiteSpace=wrap;html=1;aspect=fixed;fillColor=#dae8fc;strokeColor=#000000;" vertex="1" parent="1">
          <mxGeometry x="505" y="280" width="40" height="40" as="geometry" />
        </mxCell>
        <mxCell id="QJW8HoN2gUbeoveKg1dK-51" value="\(u_2\)" style="ellipse;whiteSpace=wrap;html=1;aspect=fixed;fillColor=#dae8fc;strokeColor=#000000;" vertex="1" parent="1">
          <mxGeometry x="585" y="280" width="40" height="40" as="geometry" />
        </mxCell>
        <mxCell id="QJW8HoN2gUbeoveKg1dK-52" value="\(u_3\)" style="ellipse;whiteSpace=wrap;html=1;aspect=fixed;fillColor=#dae8fc;strokeColor=#000000;" vertex="1" parent="1">
          <mxGeometry x="665" y="280" width="40" height="40" as="geometry" />
        </mxCell>
        <mxCell id="QJW8HoN2gUbeoveKg1dK-53" value="\(v\)" style="ellipse;whiteSpace=wrap;html=1;aspect=fixed;fillColor=#ffe6cc;strokeColor=#000000;" vertex="1" parent="1">
          <mxGeometry x="505" y="180" width="40" height="40" as="geometry" />
        </mxCell>
        <mxCell id="QJW8HoN2gUbeoveKg1dK-54" value="" style="ellipse;whiteSpace=wrap;html=1;aspect=fixed;dashed=1;" vertex="1" parent="1">
          <mxGeometry x="585" y="180" width="40" height="40" as="geometry" />
        </mxCell>
        <mxCell id="QJW8HoN2gUbeoveKg1dK-55" value="" style="ellipse;whiteSpace=wrap;html=1;aspect=fixed;dashed=1;" vertex="1" parent="1">
          <mxGeometry x="665" y="180" width="40" height="40" as="geometry" />
        </mxCell>
        <mxCell id="QJW8HoN2gUbeoveKg1dK-56" value="" style="shape=curlyBracket;whiteSpace=wrap;html=1;rounded=1;flipH=1;labelPosition=right;verticalLabelPosition=middle;align=left;verticalAlign=middle;rotation=90;" vertex="1" parent="1">
          <mxGeometry x="595" y="260" width="20" height="160" as="geometry" />
        </mxCell>
        <mxCell id="QJW8HoN2gUbeoveKg1dK-58" value="Parent nodes of \(v\)" style="text;html=1;strokeColor=none;fillColor=none;align=center;verticalAlign=middle;whiteSpace=wrap;rounded=0;" vertex="1" parent="1">
          <mxGeometry x="572.5" y="360" width="65" height="30" as="geometry" />
        </mxCell>
        <mxCell id="QJW8HoN2gUbeoveKg1dK-41" style="rounded=0;orthogonalLoop=1;jettySize=auto;html=1;exitX=0.5;exitY=0;exitDx=0;exitDy=0;entryX=0.5;entryY=1;entryDx=0;entryDy=0;strokeColor=#000000;fillColor=#f5f5f5;endArrow=none;endFill=0;startArrow=classicThin;startFill=1;" edge="1" parent="1" source="QJW8HoN2gUbeoveKg1dK-51" target="QJW8HoN2gUbeoveKg1dK-53">
          <mxGeometry relative="1" as="geometry" />
        </mxCell>
        <mxCell id="QJW8HoN2gUbeoveKg1dK-45" style="rounded=0;orthogonalLoop=1;jettySize=auto;html=1;exitX=0.5;exitY=0;exitDx=0;exitDy=0;entryX=0.5;entryY=1;entryDx=0;entryDy=0;fillColor=#f5f5f5;strokeColor=#000000;endArrow=none;endFill=0;startArrow=classicThin;startFill=1;" edge="1" parent="1" source="QJW8HoN2gUbeoveKg1dK-52" target="QJW8HoN2gUbeoveKg1dK-53">
          <mxGeometry relative="1" as="geometry" />
        </mxCell>
        <mxCell id="QJW8HoN2gUbeoveKg1dK-47" style="edgeStyle=orthogonalEdgeStyle;rounded=0;orthogonalLoop=1;jettySize=auto;html=1;exitX=0.5;exitY=0;exitDx=0;exitDy=0;entryX=0.5;entryY=1;entryDx=0;entryDy=0;strokeColor=#000000;startArrow=classicThin;startFill=1;endArrow=none;endFill=0;" edge="1" parent="1" source="QJW8HoN2gUbeoveKg1dK-50" target="QJW8HoN2gUbeoveKg1dK-53">
          <mxGeometry relative="1" as="geometry" />
        </mxCell>
        <mxCell id="QJW8HoN2gUbeoveKg1dK-61" value="\(= N(u)\)" style="text;html=1;strokeColor=none;fillColor=none;align=center;verticalAlign=middle;whiteSpace=wrap;rounded=0;" vertex="1" parent="1">
          <mxGeometry x="330" y="120" width="60" height="30" as="geometry" />
        </mxCell>
      </root>
    </mxGraphModel>
  </diagram>
</mxfile>
